<svg width="1440" height="1024" viewBox="0 0 1440 1024" fill="none" xmlns="http://www.w3.org/2000/svg">
<g opacity="0.7">
<mask id="path-1-inside-1_9179_285" fill="white">
<path fill-rule="evenodd" clip-rule="evenodd" d="M558.154 227.424C275.678 227.424 46.686 456.415 46.686 738.891V787.92C46.686 1070.4 275.678 1299.39 558.154 1299.39H1321.83C1604.3 1299.39 1833.29 1070.4 1833.29 787.92V738.891C1833.29 456.416 1604.3 227.424 1321.82 227.424H558.154ZM1182.65 1031.35C1097.91 1031.35 1029.21 962.651 1029.21 877.908V648.807C1029.21 564.064 1097.91 495.367 1182.65 495.367H1411.75C1496.49 495.367 1565.19 564.064 1565.19 648.807V877.908C1565.19 962.651 1496.49 1031.35 1411.75 1031.35H1182.65Z"/>
</mask>
<path d="M47.4324 738.891C47.4324 456.827 276.09 228.17 558.154 228.17V226.677C275.266 226.677 45.9397 456.003 45.9397 738.891H47.4324ZM47.4324 787.92V738.891H45.9397V787.92H47.4324ZM558.154 1298.64C276.091 1298.64 47.4324 1069.98 47.4324 787.92H45.9397C45.9397 1070.81 275.266 1300.13 558.154 1300.13V1298.64ZM1321.83 1298.64H558.154V1300.13H1321.83V1298.64ZM1832.55 787.92C1832.55 1069.98 1603.89 1298.64 1321.83 1298.64V1300.13C1604.71 1300.13 1834.04 1070.81 1834.04 787.92H1832.55ZM1832.55 738.891V787.92H1834.04V738.891H1832.55ZM1321.82 228.17C1603.89 228.17 1832.55 456.828 1832.55 738.891H1834.04C1834.04 456.003 1604.71 226.677 1321.82 226.677V228.17ZM558.154 228.17H1321.82V226.677H558.154V228.17ZM1028.46 877.908C1028.46 963.063 1097.49 1032.09 1182.65 1032.09V1030.6C1098.32 1030.6 1029.95 962.239 1029.95 877.908H1028.46ZM1028.46 648.807V877.908H1029.95V648.807H1028.46ZM1182.65 494.62C1097.49 494.62 1028.46 563.652 1028.46 648.807H1029.95C1029.95 564.476 1098.32 496.113 1182.65 496.113V494.62ZM1411.75 494.62H1182.65V496.113H1411.75V494.62ZM1565.94 648.807C1565.94 563.652 1496.91 494.62 1411.75 494.62V496.113C1496.08 496.113 1564.44 564.476 1564.44 648.807H1565.94ZM1565.94 877.908V648.807H1564.44V877.908H1565.94ZM1411.75 1032.09C1496.91 1032.09 1565.94 963.063 1565.94 877.908H1564.44C1564.44 962.239 1496.08 1030.6 1411.75 1030.6V1032.09ZM1182.65 1032.09H1411.75V1030.6H1182.65V1032.09Z" fill="url(#paint0_linear_9179_285)" fill-opacity="0.25" mask="url(#path-1-inside-1_9179_285)"/>
<mask id="path-3-inside-2_9179_285" fill="white">
<path fill-rule="evenodd" clip-rule="evenodd" d="M728.116 140.368C457.537 59.2538 172.433 212.845 91.3185 483.424L77.2396 530.388C-3.87477 800.967 149.717 1086.07 420.296 1167.19L1151.8 1386.48C1422.38 1467.59 1707.49 1314 1788.6 1043.42L1802.68 996.458C1883.8 725.879 1730.2 440.775 1459.62 359.66L728.116 140.368ZM1095.44 1089.74C1014.27 1065.41 968.189 979.875 992.523 898.702L1058.31 679.249C1082.65 598.075 1168.18 551.998 1249.35 576.332L1468.8 642.12C1549.98 666.454 1596.05 751.985 1571.72 833.159L1505.93 1052.61C1481.6 1133.79 1396.07 1179.86 1314.89 1155.53L1095.44 1089.74Z"/>
</mask>
<path d="M91.3185 483.424L92.0335 483.638L91.3185 483.424ZM77.2396 530.388L76.5246 530.174L77.2396 530.388ZM992.523 898.702L991.808 898.487L992.523 898.702ZM1095.44 1089.74L1095.65 1089.03L1095.44 1089.74ZM1058.31 679.249L1059.03 679.463L1058.31 679.249ZM1249.35 576.332L1249.56 575.617L1249.35 576.332ZM1468.8 642.12L1468.59 642.835L1468.8 642.12ZM1314.89 1155.53L1314.68 1156.24L1314.89 1155.53ZM92.0335 483.638C173.029 213.454 457.717 60.0871 727.901 141.083L728.33 139.653C457.356 58.4205 171.836 212.236 90.6036 483.21L92.0335 483.638ZM77.9545 530.603L92.0335 483.638L90.6036 483.21L76.5246 530.174L77.9545 530.603ZM420.511 1166.47C150.326 1085.47 -3.04146 800.787 77.9545 530.603L76.5246 530.174C-4.70808 801.148 149.108 1086.67 420.082 1167.9L420.511 1166.47ZM1152.02 1385.76L420.511 1166.47L420.082 1167.9L1151.59 1387.19L1152.02 1385.76ZM1787.89 1043.21C1706.89 1313.39 1422.2 1466.76 1152.02 1385.76L1151.59 1387.19C1422.56 1468.43 1708.08 1314.61 1789.32 1043.64L1787.89 1043.21ZM1801.97 996.243L1787.89 1043.21L1789.32 1043.64L1803.4 996.672L1801.97 996.243ZM1459.41 360.375C1729.59 441.371 1882.96 726.059 1801.97 996.243L1803.4 996.672C1884.63 725.698 1730.81 440.178 1459.84 358.945L1459.41 360.375ZM727.901 141.083L1459.41 360.375L1459.84 358.945L728.33 139.653L727.901 141.083ZM991.808 898.487C967.355 980.056 1013.66 1066 1095.23 1090.46L1095.65 1089.03C1014.88 1064.81 969.022 979.695 993.238 898.916L991.808 898.487ZM1057.6 679.035L991.808 898.487L993.238 898.916L1059.03 679.463L1057.6 679.035ZM1249.56 575.617C1168 551.164 1082.05 597.466 1057.6 679.035L1059.03 679.463C1083.24 598.684 1168.36 552.831 1249.14 577.047L1249.56 575.617ZM1469.02 641.405L1249.56 575.617L1249.14 577.047L1468.59 642.835L1469.02 641.405ZM1572.43 833.373C1596.89 751.804 1550.59 665.857 1469.02 641.405L1468.59 642.835C1549.37 667.05 1595.22 752.166 1571 832.944L1572.43 833.373ZM1506.65 1052.83L1572.43 833.373L1571 832.944L1505.22 1052.4L1506.65 1052.83ZM1314.68 1156.24C1396.25 1180.7 1482.19 1134.39 1506.65 1052.83L1505.22 1052.4C1481 1133.18 1395.89 1179.03 1315.11 1154.81L1314.68 1156.24ZM1095.23 1090.46L1314.68 1156.24L1315.11 1154.81L1095.65 1089.03L1095.23 1090.46Z" fill="url(#paint1_linear_9179_285)" fill-opacity="0.25" mask="url(#path-3-inside-2_9179_285)"/>
<mask id="path-5-inside-3_9179_285" fill="white">
<path fill-rule="evenodd" clip-rule="evenodd" d="M840.733 112.859C588.578 -14.461 280.952 86.738 153.632 338.893L131.534 382.659C4.21362 634.814 105.413 942.439 357.568 1069.76L1039.27 1413.97C1291.42 1541.29 1599.05 1440.09 1726.37 1187.93L1748.47 1144.17C1875.79 892.014 1774.59 584.388 1522.43 457.068L840.733 112.859ZM1035.86 1111.96C960.21 1073.77 929.85 981.479 968.046 905.833L1071.31 701.323C1109.5 625.676 1201.79 595.317 1277.44 633.513L1481.95 736.775C1557.6 774.971 1587.95 867.259 1549.76 942.906L1446.5 1147.42C1408.3 1223.06 1316.01 1253.42 1240.37 1215.23L1035.86 1111.96Z"/>
</mask>
<path d="M153.632 338.893L154.298 339.229L153.632 338.893ZM131.534 382.659L130.867 382.322L131.534 382.659ZM1039.27 1413.97L1038.93 1414.63L1039.27 1413.97ZM1035.86 1111.96L1036.19 1111.3L1035.86 1111.96ZM1240.37 1215.23L1240.03 1215.89L1240.37 1215.23ZM154.298 339.229C281.433 87.4424 588.609 -13.609 840.396 113.525L841.069 112.193C588.546 -15.313 280.472 86.0337 152.966 338.557L154.298 339.229ZM132.2 382.995L154.298 339.229L152.966 338.557L130.867 382.322L132.2 382.995ZM357.904 1069.09C106.117 941.959 5.06567 634.782 132.2 382.995L130.867 382.322C3.36156 634.845 104.708 942.92 357.231 1070.43L357.904 1069.09ZM1039.6 1413.3L357.904 1069.09L357.231 1070.43L1038.93 1414.63L1039.6 1413.3ZM1725.7 1187.6C1598.57 1439.39 1291.39 1540.44 1039.6 1413.3L1038.93 1414.63C1291.45 1542.14 1599.53 1440.79 1727.03 1188.27L1725.7 1187.6ZM1747.8 1143.83L1725.7 1187.6L1727.03 1188.27L1749.13 1144.51L1747.8 1143.83ZM1522.1 457.734C1773.88 584.869 1874.93 892.045 1747.8 1143.83L1749.13 1144.51C1876.64 891.982 1775.29 583.908 1522.77 456.402L1522.1 457.734ZM840.396 113.525L1522.1 457.734L1522.77 456.402L841.069 112.193L840.396 113.525ZM967.38 905.496C928.998 981.511 959.505 1074.25 1035.52 1112.63L1036.19 1111.3C960.914 1073.29 930.702 981.447 968.712 906.169L967.38 905.496ZM1070.64 700.986L967.38 905.496L968.712 906.169L1071.98 701.659L1070.64 700.986ZM1277.78 632.846C1201.76 594.465 1109.02 624.972 1070.64 700.986L1071.98 701.659C1109.99 626.381 1201.82 596.169 1277.1 634.179L1277.78 632.846ZM1482.29 736.109L1277.78 632.846L1277.1 634.179L1481.61 737.442L1482.29 736.109ZM1550.43 943.242C1588.81 867.228 1558.3 774.491 1482.29 736.109L1481.61 737.442C1556.89 775.452 1587.1 867.291 1549.09 942.569L1550.43 943.242ZM1447.16 1147.75L1550.43 943.242L1549.09 942.569L1445.83 1147.08L1447.16 1147.75ZM1240.03 1215.89C1316.04 1254.27 1408.78 1223.77 1447.16 1147.75L1445.83 1147.08C1407.82 1222.36 1315.98 1252.57 1240.7 1214.56L1240.03 1215.89ZM1035.52 1112.63L1240.03 1215.89L1240.7 1214.56L1036.19 1111.3L1035.52 1112.63Z" fill="url(#paint2_linear_9179_285)" fill-opacity="0.25" mask="url(#path-5-inside-3_9179_285)"/>
<mask id="path-7-inside-4_9179_285" fill="white">
<path fill-rule="evenodd" clip-rule="evenodd" d="M950.627 105.389C723.258 -62.2289 403.057 -13.7916 235.439 213.577L206.346 253.042C38.7274 480.411 87.1652 800.612 314.534 968.23L929.225 1421.38C1156.59 1589 1476.79 1540.57 1644.41 1313.2L1673.51 1273.73C1841.12 1046.36 1792.69 726.163 1565.32 558.544L950.627 105.389ZM976.253 1123.04C908.042 1072.76 893.511 976.697 943.796 908.486L1079.74 724.079C1130.03 655.868 1226.09 641.337 1294.3 691.622L1478.71 827.569C1546.92 877.854 1561.45 973.914 1511.16 1042.12L1375.22 1226.53C1324.93 1294.74 1228.87 1309.27 1160.66 1258.99L976.253 1123.04Z"/>
</mask>
<path d="M976.253 1123.04L975.81 1123.64L976.253 1123.04ZM1160.66 1258.99L1161.1 1258.39L1160.66 1258.99ZM236.04 214.02C403.414 -13.0169 723.147 -61.3835 950.184 105.99L951.07 104.789C723.369 -63.0742 402.701 -14.5662 234.838 213.135L236.04 214.02ZM206.946 253.485L236.04 214.02L234.838 213.135L205.745 252.599L206.946 253.485ZM314.977 967.629C87.9398 800.255 39.5727 480.522 206.946 253.485L205.745 252.599C37.882 480.3 86.3905 800.968 314.091 968.831L314.977 967.629ZM929.668 1420.78L314.977 967.629L314.091 968.831L928.782 1421.99L929.668 1420.78ZM1643.81 1312.75C1476.44 1539.79 1156.7 1588.16 929.668 1420.78L928.782 1421.99C1156.48 1589.85 1477.15 1541.34 1645.01 1313.64L1643.81 1312.75ZM1672.9 1273.29L1643.81 1312.75L1645.01 1313.64L1674.11 1274.18L1672.9 1273.29ZM1564.87 559.145C1791.91 726.519 1840.28 1046.25 1672.9 1273.29L1674.11 1274.18C1841.97 1046.47 1793.46 725.807 1565.76 557.944L1564.87 559.145ZM950.184 105.99L1564.87 559.145L1565.76 557.944L951.07 104.789L950.184 105.99ZM943.195 908.043C892.665 976.586 907.267 1073.11 975.81 1123.64L976.695 1122.44C908.817 1072.4 894.356 976.808 944.397 908.929L943.195 908.043ZM1079.14 723.636L943.195 908.043L944.397 908.929L1080.34 724.521L1079.14 723.636ZM1294.74 691.021C1226.2 640.491 1129.67 655.093 1079.14 723.636L1080.34 724.521C1130.38 656.643 1225.98 642.182 1293.86 692.223L1294.74 691.021ZM1479.15 826.968L1294.74 691.021L1293.86 692.223L1478.26 828.169L1479.15 826.968ZM1511.76 1042.57C1562.29 974.025 1547.69 877.498 1479.15 826.968L1478.26 828.169C1546.14 878.21 1560.6 973.803 1510.56 1041.68L1511.76 1042.57ZM1375.82 1226.98L1511.76 1042.57L1510.56 1041.68L1374.62 1226.09L1375.82 1226.98ZM1160.22 1259.59C1228.76 1310.12 1325.29 1295.52 1375.82 1226.98L1374.62 1226.09C1324.57 1293.97 1228.98 1308.43 1161.1 1258.39L1160.22 1259.59ZM975.81 1123.64L1160.22 1259.59L1161.1 1258.39L976.695 1122.44L975.81 1123.64Z" fill="url(#paint3_linear_9179_285)" fill-opacity="0.25" mask="url(#path-7-inside-4_9179_285)"/>
<mask id="path-9-inside-5_9179_285" fill="white">
<path fill-rule="evenodd" clip-rule="evenodd" d="M1034.24 112.118C830.037 -83.0627 506.276 -75.7519 311.096 128.447L277.219 163.89C82.0381 368.089 89.3494 691.85 293.548 887.03L845.599 1414.7C1049.8 1609.88 1373.56 1602.57 1568.74 1398.37L1602.62 1362.93C1797.8 1158.73 1790.48 834.967 1586.29 639.786L1034.24 112.118ZM930.191 1124.76C868.932 1066.2 866.738 969.077 925.293 907.817L1083.59 742.202C1142.15 680.942 1239.28 678.749 1300.54 737.303L1466.15 895.603C1527.41 954.158 1529.6 1051.29 1471.05 1112.55L1312.75 1278.16C1254.19 1339.42 1157.07 1341.61 1095.81 1283.06L930.191 1124.76Z"/>
</mask>
<path d="M930.191 1124.76L929.676 1125.3L930.191 1124.76ZM1300.54 737.303L1301.05 736.763L1300.54 737.303ZM1466.15 895.603L1465.63 896.143L1466.15 895.603ZM1095.81 1283.06L1096.32 1282.52L1095.81 1283.06ZM311.635 128.963C506.531 -74.9382 829.819 -82.2383 1033.72 112.657L1034.75 111.578C830.255 -83.887 506.021 -76.5656 310.556 127.931L311.635 128.963ZM277.758 164.405L311.635 128.963L310.556 127.931L276.679 163.374L277.758 164.405ZM294.064 886.491C90.163 691.595 82.8625 368.306 277.758 164.405L276.679 163.374C81.2138 367.871 88.5357 692.105 293.033 887.57L294.064 886.491ZM846.114 1414.16L294.064 886.491L293.033 887.57L845.083 1415.24L846.114 1414.16ZM1568.2 1397.85C1373.3 1601.75 1050.02 1609.05 846.114 1414.16L845.083 1415.24C1049.58 1610.7 1373.81 1603.38 1569.28 1398.89L1568.2 1397.85ZM1602.08 1362.41L1568.2 1397.85L1569.28 1398.89L1603.16 1363.44L1602.08 1362.41ZM1585.77 640.326C1789.67 835.222 1796.97 1158.51 1602.08 1362.41L1603.16 1363.44C1798.62 1158.95 1791.3 834.712 1586.8 639.247L1585.77 640.326ZM1033.72 112.657L1585.77 640.326L1586.8 639.247L1034.75 111.578L1033.72 112.657ZM924.753 907.301C865.914 968.859 868.118 1066.46 929.676 1125.3L930.707 1124.22C869.745 1065.95 867.563 969.294 925.832 908.333L924.753 907.301ZM1083.05 741.686L924.753 907.301L925.832 908.333L1084.13 742.717L1083.05 741.686ZM1301.05 736.763C1239.49 677.924 1141.89 680.128 1083.05 741.686L1084.13 742.717C1142.4 681.756 1239.06 679.573 1300.02 737.842L1301.05 736.763ZM1466.67 895.064L1301.05 736.763L1300.02 737.842L1465.63 896.143L1466.67 895.064ZM1471.59 1113.06C1530.43 1051.5 1528.22 953.903 1466.67 895.064L1465.63 896.143C1526.6 954.412 1528.78 1051.07 1470.51 1112.03L1471.59 1113.06ZM1313.29 1278.68L1471.59 1113.06L1470.51 1112.03L1312.21 1277.65L1313.29 1278.68ZM1095.29 1283.6C1156.85 1342.44 1254.45 1340.23 1313.29 1278.68L1312.21 1277.65C1253.94 1338.61 1157.28 1340.79 1096.32 1282.52L1095.29 1283.6ZM929.676 1125.3L1095.29 1283.6L1096.32 1282.52L930.707 1124.22L929.676 1125.3Z" fill="url(#paint4_linear_9179_285)" fill-opacity="0.25" mask="url(#path-9-inside-5_9179_285)"/>
<mask id="path-11-inside-6_9179_285" fill="white">
<path fill-rule="evenodd" clip-rule="evenodd" d="M1146.84 138.682C979.971 -89.2364 659.931 -138.725 432.013 28.1459L392.453 57.1096C164.535 223.981 115.047 544.021 281.918 771.939L733.052 1388.11C899.923 1616.03 1219.96 1665.52 1447.88 1498.65L1487.44 1469.69C1715.36 1302.82 1764.85 982.775 1597.98 754.857L1146.84 138.682ZM867.104 1117.47C817.042 1049.09 831.889 953.082 900.264 903.02L1085.12 767.68C1153.49 717.619 1249.5 732.465 1299.57 800.841L1434.91 985.693C1484.97 1054.07 1470.12 1150.08 1401.75 1200.14L1216.89 1335.48C1148.52 1385.54 1052.51 1370.7 1002.44 1302.32L867.104 1117.47Z"/>
</mask>
<path d="M867.104 1117.47L866.501 1117.91L867.104 1117.47ZM1299.57 800.841L1298.96 801.282L1299.57 800.841ZM1434.91 985.693L1435.51 985.252L1434.91 985.693ZM1401.75 1200.14L1401.3 1199.54L1401.75 1200.14ZM1216.89 1335.48L1217.33 1336.08L1216.89 1335.48ZM1002.44 1302.32L1003.05 1301.88L1002.44 1302.32ZM432.454 28.7481C660.039 -137.879 979.612 -88.4629 1146.24 139.123L1147.44 138.241C980.329 -90.0099 659.823 -139.571 431.572 27.5437L432.454 28.7481ZM392.894 57.7118L432.454 28.7481L431.572 27.5437L392.013 56.5074L392.894 57.7118ZM282.52 771.498C115.893 543.912 165.309 224.339 392.894 57.7118L392.013 56.5074C163.762 223.622 114.201 544.129 281.316 772.38L282.52 771.498ZM733.655 1387.67L282.52 771.498L281.316 772.38L732.45 1388.55L733.655 1387.67ZM1447.44 1498.05C1219.85 1664.67 900.282 1615.26 733.655 1387.67L732.45 1388.55C899.565 1616.81 1220.07 1666.37 1448.32 1499.25L1447.44 1498.05ZM1487 1469.08L1447.44 1498.05L1448.32 1499.25L1487.88 1470.29L1487 1469.08ZM1597.37 755.298C1764 982.883 1714.59 1302.46 1487 1469.08L1487.88 1470.29C1716.13 1303.17 1765.69 982.667 1598.58 754.416L1597.37 755.298ZM1146.24 139.123L1597.37 755.298L1598.58 754.416L1147.44 138.241L1146.24 139.123ZM899.823 902.418C831.115 952.723 816.196 1049.2 866.501 1117.91L867.706 1117.03C817.888 1048.99 832.662 953.44 900.705 903.623L899.823 902.418ZM1084.68 767.078L899.823 902.418L900.705 903.623L1085.56 768.282L1084.68 767.078ZM1300.17 800.4C1249.86 731.692 1153.38 716.773 1084.68 767.078L1085.56 768.282C1153.6 718.464 1249.15 733.239 1298.96 801.282L1300.17 800.4ZM1435.51 985.252L1300.17 800.4L1298.96 801.282L1434.3 986.134L1435.51 985.252ZM1402.19 1200.74C1470.89 1150.44 1485.81 1053.96 1435.51 985.252L1434.3 986.134C1484.12 1054.18 1469.35 1149.72 1401.3 1199.54L1402.19 1200.74ZM1217.33 1336.08L1402.19 1200.74L1401.3 1199.54L1216.45 1334.88L1217.33 1336.08ZM1001.84 1302.76C1052.15 1371.47 1148.63 1386.39 1217.33 1336.08L1216.45 1334.88C1148.41 1384.7 1052.86 1369.92 1003.05 1301.88L1001.84 1302.76ZM866.501 1117.91L1001.84 1302.76L1003.05 1301.88L867.706 1117.03L866.501 1117.91Z" fill="url(#paint5_linear_9179_285)" fill-opacity="0.25" mask="url(#path-11-inside-6_9179_285)"/>
</g>
<defs>
<linearGradient id="paint0_linear_9179_285" x1="939.99" y1="227.424" x2="939.99" y2="1299.39" gradientUnits="userSpaceOnUse">
<stop stop-color="#3F38AC"/>
<stop offset="1" stop-color="#1FAABF"/>
</linearGradient>
<linearGradient id="paint1_linear_9179_285" x1="1093.87" y1="250.014" x2="786.05" y2="1276.83" gradientUnits="userSpaceOnUse">
<stop stop-color="#3F38AC"/>
<stop offset="1" stop-color="#1FAABF"/>
</linearGradient>
<linearGradient id="paint2_linear_9179_285" x1="1181.58" y1="284.964" x2="698.417" y2="1241.86" gradientUnits="userSpaceOnUse">
<stop stop-color="#3F38AC"/>
<stop offset="1" stop-color="#1FAABF"/>
</linearGradient>
<linearGradient id="paint3_linear_9179_285" x1="1257.97" y1="331.967" x2="621.879" y2="1194.81" gradientUnits="userSpaceOnUse">
<stop stop-color="#3F38AC"/>
<stop offset="1" stop-color="#1FAABF"/>
</linearGradient>
<linearGradient id="paint4_linear_9179_285" x1="1310.26" y1="375.952" x2="569.573" y2="1150.86" gradientUnits="userSpaceOnUse">
<stop stop-color="#3F38AC"/>
<stop offset="1" stop-color="#1FAABF"/>
</linearGradient>
<linearGradient id="paint5_linear_9179_285" x1="1372.41" y1="446.769" x2="507.485" y2="1080.03" gradientUnits="userSpaceOnUse">
<stop stop-color="#3F38AC"/>
<stop offset="1" stop-color="#1FAABF"/>
</linearGradient>
</defs>
</svg>
