<svg width="157" height="34" viewBox="0 0 157 34" fill="none" xmlns="http://www.w3.org/2000/svg">
<path fill-rule="evenodd" clip-rule="evenodd" d="M13.2459 4.30371C5.93041 4.30371 0 10.2341 0 17.5496C0 24.8652 5.93042 30.7956 13.2459 30.7956H30.9072C38.2227 30.7956 44.1531 24.8652 44.1531 17.5496C44.1531 10.2341 38.2227 4.30371 30.9072 4.30371H13.2459ZM30.9069 24.1715C27.2491 24.1715 24.2839 21.2063 24.2839 17.5486C24.2839 13.8908 27.2491 10.9256 30.9069 10.9256C34.5647 10.9256 37.5299 13.8908 37.5299 17.5486C37.5299 21.2063 34.5646 24.1715 30.9069 24.1715Z" fill="url(#paint0_linear_9177_210)"/>
<path d="M58.0163 26.9998V10.9775H61.1954V26.9998H58.0163ZM59.6377 7.9574C59.023 7.9574 58.5144 7.76666 58.1117 7.38517C57.7302 7.00369 57.5395 6.51624 57.5395 5.92282C57.5395 5.3506 57.7302 4.88434 58.1117 4.52405C58.5144 4.14257 59.023 3.95183 59.6377 3.95183C60.2311 3.95183 60.7291 4.14257 61.1318 4.52405C61.5345 4.88434 61.7358 5.3506 61.7358 5.92282C61.7358 6.51624 61.5345 7.00369 61.1318 7.38517C60.7291 7.76666 60.2311 7.9574 59.6377 7.9574ZM64.1519 33.9936V10.9775H67.013L67.3309 13.4571C67.67 12.9697 68.0939 12.514 68.6025 12.0901C69.1111 11.6451 69.7152 11.2848 70.4145 11.0093C71.1351 10.7337 71.9723 10.596 72.926 10.596C74.4519 10.596 75.7871 10.9669 76.9315 11.7086C78.0972 12.4504 78.9979 13.4571 79.6337 14.7287C80.2907 15.9791 80.6192 17.4097 80.6192 19.0204C80.6192 20.6311 80.2907 22.0723 79.6337 23.3439C78.9767 24.5943 78.0654 25.5798 76.8998 26.3004C75.7553 27.0209 74.4201 27.3812 72.8942 27.3812C71.6438 27.3812 70.5417 27.1375 69.588 26.6501C68.6343 26.1414 67.8819 25.442 67.3309 24.5519V33.9936H64.1519ZM72.3855 24.6155C73.3604 24.6155 74.2188 24.3824 74.9605 23.9161C75.7235 23.4498 76.3169 22.7928 76.7408 21.9451C77.1859 21.0974 77.4084 20.1119 77.4084 18.9886C77.4084 17.8654 77.1859 16.8905 76.7408 16.0639C76.3169 15.2162 75.7235 14.5592 74.9605 14.0929C74.2188 13.6055 73.3604 13.3617 72.3855 13.3617C71.3894 13.3617 70.5099 13.6055 69.7469 14.0929C69.0052 14.5592 68.4224 15.2162 67.9985 16.0639C67.5746 16.8905 67.3627 17.8654 67.3627 18.9886C67.3627 20.1119 67.5746 21.0974 67.9985 21.9451C68.4224 22.7928 69.0052 23.4498 69.7469 23.9161C70.5099 24.3824 71.3894 24.6155 72.3855 24.6155ZM82.7417 26.9998V4.11078H85.9207V26.9998H82.7417ZM94.0051 27.3812C92.6911 27.3812 91.5997 27.1587 90.7307 26.7136C89.8618 26.2686 89.2154 25.6752 88.7915 24.9334C88.3677 24.1704 88.1557 23.3545 88.1557 22.4855C88.1557 21.4259 88.4313 20.5251 88.9823 19.7834C89.5333 19.0204 90.3175 18.4376 91.3348 18.0349C92.3521 17.6322 93.5707 17.4309 94.9906 17.4309H99.1552C99.1552 16.4984 99.0174 15.7248 98.7419 15.1102C98.4664 14.4956 98.0531 14.0399 97.5021 13.7432C96.9722 13.4253 96.294 13.2664 95.4675 13.2664C94.5138 13.2664 93.6978 13.4995 93.0196 13.9658C92.3415 14.4108 91.9176 15.0784 91.748 15.9685H88.569C88.6962 14.8453 89.0777 13.8916 89.7135 13.1074C90.3705 12.3021 91.2076 11.6875 92.2249 11.2636C93.2422 10.8185 94.323 10.596 95.4675 10.596C96.9722 10.596 98.2332 10.8609 99.2505 11.3907C100.268 11.9206 101.031 12.673 101.539 13.6479C102.069 14.6016 102.334 15.746 102.334 17.0812V26.9998H99.5684L99.3141 24.2976C99.081 24.7215 98.8055 25.1241 98.4876 25.5056C98.1697 25.8871 97.7882 26.2156 97.3431 26.4911C96.9192 26.7666 96.4212 26.9786 95.849 27.1269C95.2979 27.2965 94.6833 27.3812 94.0051 27.3812ZM94.6092 24.8062C95.2873 24.8062 95.902 24.6685 96.453 24.393C97.004 24.1174 97.4703 23.7466 97.8518 23.2803C98.2544 22.7928 98.5511 22.2524 98.7419 21.659C98.9538 21.0444 99.0704 20.4192 99.0916 19.7834V19.688H95.3085C94.3972 19.688 93.6555 19.8046 93.0832 20.0377C92.5322 20.2496 92.1295 20.5463 91.8752 20.9278C91.6209 21.3093 91.4937 21.7544 91.4937 22.263C91.4937 22.7928 91.6103 23.2485 91.8434 23.63C92.0977 23.9903 92.458 24.2764 92.9243 24.4883C93.3905 24.7003 93.9522 24.8062 94.6092 24.8062ZM104.802 26.9998V10.9775H107.664L107.854 13.7114C108.363 12.7577 109.083 12.0054 110.016 11.4543C110.949 10.8821 112.019 10.596 113.227 10.596C114.498 10.596 115.59 10.8503 116.501 11.359C117.413 11.8676 118.123 12.6412 118.631 13.6796C119.14 14.6969 119.394 15.9791 119.394 17.5263V26.9998H116.215V17.8442C116.215 16.3606 115.887 15.2374 115.23 14.4744C114.573 13.7114 113.619 13.33 112.368 13.33C111.542 13.33 110.8 13.5313 110.143 13.934C109.486 14.3154 108.956 14.8877 108.554 15.6506C108.172 16.4136 107.981 17.3461 107.981 18.4482V26.9998H104.802ZM121.871 26.9998V10.9775H124.732L125.018 13.9975C125.379 13.277 125.845 12.673 126.417 12.1855C126.989 11.6769 127.657 11.2848 128.42 11.0093C129.204 10.7337 130.094 10.596 131.09 10.596V13.9658H129.946C129.289 13.9658 128.664 14.0505 128.07 14.2201C127.477 14.3684 126.947 14.6334 126.481 15.0148C126.036 15.3963 125.686 15.9156 125.432 16.5726C125.177 17.2296 125.05 18.0455 125.05 19.0204V26.9998H121.871ZM132.643 26.9998V10.9775H135.822V26.9998H132.643ZM134.264 7.9574C133.649 7.9574 133.141 7.76666 132.738 7.38517C132.357 7.00369 132.166 6.51624 132.166 5.92282C132.166 5.3506 132.357 4.88434 132.738 4.52405C133.141 4.14257 133.649 3.95183 134.264 3.95183C134.857 3.95183 135.355 4.14257 135.758 4.52405C136.161 4.88434 136.362 5.3506 136.362 5.92282C136.362 6.51624 136.161 7.00369 135.758 7.38517C135.355 7.76666 134.857 7.9574 134.264 7.9574ZM146.09 27.3812C144.585 27.3812 143.229 27.0315 142.021 26.3322C140.834 25.6328 139.891 24.6579 139.191 23.4075C138.513 22.1358 138.174 20.6735 138.174 19.0204C138.174 17.3249 138.524 15.852 139.223 14.6016C139.923 13.3299 140.876 12.3445 142.084 11.6451C143.292 10.9457 144.649 10.596 146.154 10.596C147.679 10.596 149.036 10.9457 150.223 11.6451C151.41 12.3445 152.342 13.3194 153.02 14.5698C153.72 15.8202 154.069 17.2931 154.069 18.9886C154.069 20.6841 153.72 22.157 153.02 23.4075C152.342 24.6579 151.399 25.6328 150.191 26.3322C148.983 27.0315 147.616 27.3812 146.09 27.3812ZM146.09 24.6473C146.959 24.6473 147.743 24.4353 148.442 24.0115C149.163 23.5876 149.735 22.9624 150.159 22.1358C150.604 21.2881 150.827 20.239 150.827 18.9886C150.827 17.7382 150.615 16.6997 150.191 15.8732C149.767 15.0254 149.195 14.3896 148.474 13.9658C147.775 13.5419 147.001 13.33 146.154 13.33C145.306 13.33 144.522 13.5419 143.801 13.9658C143.081 14.3896 142.498 15.0254 142.053 15.8732C141.629 16.6997 141.417 17.7382 141.417 18.9886C141.417 20.239 141.629 21.2881 142.053 22.1358C142.498 22.9624 143.07 23.5876 143.769 24.0115C144.49 24.4353 145.263 24.6473 146.09 24.6473Z" fill="#406BCC"/>
<defs>
<linearGradient id="paint0_linear_9177_210" x1="5.98026e-06" y1="17.5496" x2="44.1531" y2="17.5496" gradientUnits="userSpaceOnUse">
<stop stop-color="#3F38AC"/>
<stop offset="1" stop-color="#27B8DB"/>
</linearGradient>
</defs>
</svg>
